<svg xmlns="http://www.w3.org/2000/svg" style="display:none">

  <symbol id="icon-leaf" viewBox="0 0 24 24" fill="none" stroke="currentColor" stroke-width="2" stroke-linecap="round" stroke-linejoin="round">
    <path d="M12 3C7 6 4 10 4 14a8 8 0 0 0 16 0c0-4-3-8-8-11Z"/>
    <path d="M12 21v-9"/>
  </symbol>

  <symbol id="icon-seedling" viewBox="0 0 24 24" fill="none" stroke="currentColor" stroke-width="2" stroke-linecap="round" stroke-linejoin="round">
    <path d="M12 21v-7"/>
    <path d="M12 14c-4 0-7-3-7-7 4 0 7 3 7 7Z"/>
    <path d="M12 14c4 0 7-3 7-7-4 0-7 3-7 7Z"/>
    <line x1="6" y1="21" x2="18" y2="21"/>
  </symbol>

  <symbol id="icon-sun" viewBox="0 0 24 24" fill="none" stroke="currentColor" stroke-width="2" stroke-linecap="round" stroke-linejoin="round">
    <circle cx="12" cy="12" r="4"/>
    <path d="M12 2v2M12 20v2M4 12H2M22 12h-2M5 5 3.6 3.6M20.4 20.4 19 19M19 5l1.4-1.4M3.6 20.4 5 19"/>
  </symbol>

  <symbol id="icon-droplet" viewBox="0 0 24 24" fill="none" stroke="currentColor" stroke-width="2" stroke-linecap="round" stroke-linejoin="round">
    <path d="M12 2s7 8 7 13a7 7 0 0 1-14 0c0-5 7-13 7-13Z"/>
  </symbol>

  <symbol id="icon-wheat" viewBox="0 0 24 24" fill="none" stroke="currentColor" stroke-width="2" stroke-linecap="round" stroke-linejoin="round">
    <line x1="12" y1="21" x2="12" y2="4"/>
    <path d="M12 6 9 4M12 6l3-2M12 10 9 8M12 10l3-2M12 14 9 12M12 14l3-2"/>
  </symbol>

  <symbol id="icon-tractor" viewBox="0 0 24 24" fill="none" stroke="currentColor" stroke-width="2" stroke-linecap="round" stroke-linejoin="round">
    <circle cx="7" cy="18" r="3"/>
    <circle cx="18" cy="18" r="2"/>
    <path d="M4 18V10h6l3 4h4a2 2 0 0 1 2 2v2"/>
    <path d="M10 10V6h2"/>
  </symbol>

  <symbol id="icon-truck" viewBox="0 0 24 24" fill="none" stroke="currentColor" stroke-width="2" stroke-linecap="round" stroke-linejoin="round">
    <rect x="1" y="8" width="13" height="8" rx="1"/>
    <path d="M14 11h4l3 3v2h-7z"/>
    <circle cx="5.5" cy="18" r="1.8"/>
    <circle cx="17.5" cy="18" r="1.8"/>
  </symbol>

  <symbol id="icon-warehouse" viewBox="0 0 24 24" fill="none" stroke="currentColor" stroke-width="2" stroke-linecap="round" stroke-linejoin="round">
    <path d="M3 10 12 4l9 6"/>
    <path d="M5 10v10h14V10"/>
    <path d="M9 20v-6h6v6"/>
  </symbol>

  <symbol id="icon-blockchain" viewBox="0 0 24 24" fill="none" stroke="currentColor" stroke-width="2" stroke-linecap="round" stroke-linejoin="round">
    <rect x="3" y="3" width="6" height="6" rx="1"/>
    <rect x="15" y="3" width="6" height="6" rx="1"/>
    <rect x="9" y="15" width="6" height="6" rx="1"/>
    <path d="M9 6h6M6 9v4l6 5M18 9v4l-6 5"/>
  </symbol>

  <symbol id="icon-shield-check" viewBox="0 0 24 24" fill="none" stroke="currentColor" stroke-width="2" stroke-linecap="round" stroke-linejoin="round">
    <path d="M12 3 4 6v6c0 5 3.5 8.5 8 9 4.5-.5 8-4 8-9V6z"/>
    <path d="m9 12 2 2 4-4"/>
  </symbol>

  <symbol id="icon-qr-code" viewBox="0 0 24 24" fill="none" stroke="currentColor" stroke-width="2" stroke-linecap="round" stroke-linejoin="round">
    <rect x="3" y="3" width="7" height="7"/>
    <rect x="14" y="3" width="7" height="7"/>
    <rect x="3" y="14" width="7" height="7"/>
    <rect x="14" y="14" width="3" height="3"/>
    <rect x="18" y="14" width="3" height="3"/>
    <rect x="14" y="18" width="3" height="3"/>
    <rect x="18" y="18" width="3" height="3"/>
  </symbol>

  <symbol id="icon-chart-bar" viewBox="0 0 24 24" fill="none" stroke="currentColor" stroke-width="2" stroke-linecap="round" stroke-linejoin="round">
    <line x1="3" y1="21" x2="21" y2="21"/>
    <rect x="5" y="13" width="3" height="8"/>
    <rect x="11" y="9" width="3" height="12"/>
    <rect x="17" y="5" width="3" height="16"/>
  </symbol>

  <symbol id="icon-chevron-down" viewBox="0 0 24 24" fill="none" stroke="currentColor" stroke-width="2" stroke-linecap="round" stroke-linejoin="round">
    <path d="m6 9 6 6 6-6"/>
  </symbol>

</svg>
