<svg xmlns="http://www.w3.org/2000/svg" style="display:none">

  <symbol id="icon-leaf" viewBox="0 0 24 24" fill="none" stroke="currentColor" stroke-width="2" stroke-linecap="round" stroke-linejoin="round">
    <path d="M12 3C7 6 4 10 4 14a8 8 0 0 0 16 0c0-4-3-8-8-11Z"/>
    <path d="M12 21v-9"/>
  </symbol>

  <symbol id="icon-seedling" viewBox="0 0 24 24" fill="none" stroke="currentColor" stroke-width="2" stroke-linecap="round" stroke-linejoin="round">
    <path d="M12 21v-7"/>
    <path d="M12 14c-4 0-7-3-7-7 4 0 7 3 7 7Z"/>
    <path d="M12 14c4 0 7-3 7-7-4 0-7 3-7 7Z"/>
    <line x1="6" y1="21" x2="18" y2="21"/>
  </symbol>

  <symbol id="icon-sun" viewBox="0 0 24 24" fill="none" stroke="currentColor" stroke-width="2" stroke-linecap="round" stroke-linejoin="round">
    <circle cx="12" cy="12" r="4"/>
    <path d="M12 2v2M12 20v2M4 12H2M22 12h-2M5 5 3.6 3.6M20.4 20.4 19 19M19 5l1.4-1.4M3.6 20.4 5 19"/>
  </symbol>

  <symbol id="icon-droplet" viewBox="0 0 24 24" fill="none" stroke="currentColor" stroke-width="2" stroke-linecap="round" stroke-linejoin="round">
    <path d="M12 2s7 8 7 13a7 7 0 0 1-14 0c0-5 7-13 7-13Z"/>
  </symbol>

  <symbol id="icon-wheat" viewBox="0 0 24 24" fill="none" stroke="currentColor" stroke-width="2" stroke-linecap="round" stroke-linejoin="round">
    <line x1="12" y1="21" x2="12" y2="4"/>
    <path d="M12 6 9 4M12 6l3-2M12 10 9 8M12 10l3-2M12 14 9 12M12 14l3-2"/>
  </symbol>

  <symbol id="icon-tractor" viewBox="0 0 24 24" fill="none" stroke="currentColor" stroke-width="2" stroke-linecap="round" stroke-linejoin="round">
    <circle cx="7" cy="18" r="3"/>
    <circle cx="18" cy="18" r="2"/>
    <path d="M4 18V10h6l3 4h4a2 2 0 0 1 2 2v2"/>
    <path d="M10 10V6h2"/>
  </symbol>

  <symbol id="icon-truck" viewBox="0 0 24 24" fill="none" stroke="currentColor" stroke-width="2" stroke-linecap="round" stroke-linejoin="round">
    <rect x="1" y="8" width="13" height="8" rx="1"/>
    <path d="M14 11h4l3 3v2h-7z"/>
    <circle cx="5.5" cy="18" r="1.8"/>
    <circle cx="17.5" cy="18" r="1.8"/>
  </symbol>

  <symbol id="icon-warehouse" viewBox="0 0 24 24" fill="none" stroke="currentColor" stroke-width="2" stroke-linecap="round" stroke-linejoin="round">
    <path d="M3 10 12 4l9 6"/>
    <path d="M5 10v10h14V10"/>
    <path d="M9 20v-6h6v6"/>
  </symbol>

  <symbol id="icon-blockchain" viewBox="0 0 24 24" fill="none" stroke="currentColor" stroke-width="2" stroke-linecap="round" stroke-linejoin="round">
    <rect x="3" y="3" width="6" height="6" rx="1"/>
    <rect x="15" y="3" width="6" height="6" rx="1"/>
    <rect x="9" y="15" width="6" height="6" rx="1"/>
    <path d="M9 6h6M6 9v4l6 5M18 9v4l-6 5"/>
  </symbol>

  <symbol id="icon-shield-check" viewBox="0 0 24 24" fill="none" stroke="currentColor" stroke-width="2" stroke-linecap="round" stroke-linejoin="round">
    <path d="M12 3 4 6v6c0 5 3.5 8.5 8 9 4.5-.5 8-4 8-9V6z"/>
    <path d="m9 12 2 2 4-4"/>
  </symbol>

  <symbol id="icon-qr-code" viewBox="0 0 24 24" fill="none" stroke="currentColor" stroke-width="2" stroke-linecap="round" stroke-linejoin="round">
    <rect x="3" y="3" width="7" height="7"/>
    <rect x="14" y="3" width="7" height="7"/>
    <rect x="3" y="14" width="7" height="7"/>
    <rect x="14" y="14" width="3" height="3"/>
    <rect x="18" y="14" width="3" height="3"/>
    <rect x="14" y="18" width="3" height="3"/>
    <rect x="18" y="18" width="3" height="3"/>
  </symbol>

  <symbol id="icon-chart-bar" viewBox="0 0 24 24" fill="none" stroke="currentColor" stroke-width="2" stroke-linecap="round" stroke-linejoin="round">
    <line x1="3" y1="21" x2="21" y2="21"/>
    <rect x="5" y="13" width="3" height="8"/>
    <rect x="11" y="9" width="3" height="12"/>
    <rect x="17" y="5" width="3" height="16"/>
  </symbol>

  <symbol id="icon-chevron-down" viewBox="0 0 24 24" fill="none" stroke="currentColor" stroke-width="2" stroke-linecap="round" stroke-linejoin="round">
    <path d="m6 9 6 6 6-6"/>
  </symbol>

  <symbol id="icon-cpu" viewBox="0 0 24 24" fill="none" stroke="currentColor" stroke-width="2" stroke-linecap="round" stroke-linejoin="round">
    <rect x="6" y="6" width="12" height="12" rx="1"/>
    <rect x="10" y="10" width="4" height="4"/>
    <path d="M9 2v4M15 2v4M9 18v4M15 18v4M2 9h4M2 15h4M18 9h4M18 15h4"/>
  </symbol>

  <symbol id="icon-shopping-cart" viewBox="0 0 24 24" fill="none" stroke="currentColor" stroke-width="2" stroke-linecap="round" stroke-linejoin="round">
    <circle cx="9" cy="20" r="1.5"/>
    <circle cx="18" cy="20" r="1.5"/>
    <path d="M2.5 3h2.6l2.3 12.4a2 2 0 0 0 2 1.6h8a2 2 0 0 0 2-1.6L21 7.5H6"/>
  </symbol>

  <symbol id="icon-globe" viewBox="0 0 24 24" fill="none" stroke="currentColor" stroke-width="2" stroke-linecap="round" stroke-linejoin="round">
    <circle cx="12" cy="12" r="9"/>
    <ellipse cx="12" cy="12" rx="4" ry="9"/>
    <line x1="3" y1="12" x2="21" y2="12"/>
  </symbol>

  <symbol id="icon-map-pin" viewBox="0 0 24 24" fill="none" stroke="currentColor" stroke-width="2" stroke-linecap="round" stroke-linejoin="round">
    <path d="M12 21s7-7.5 7-12a7 7 0 0 0-14 0c0 4.5 7 12 7 12Z"/>
    <circle cx="12" cy="9" r="2.5"/>
  </symbol>

  <symbol id="icon-phone" viewBox="0 0 24 24" fill="none" stroke="currentColor" stroke-width="2" stroke-linecap="round" stroke-linejoin="round">
    <path d="M4 3h4l2 5-2.5 2.5a12 12 0 0 0 6 6L16 14l5 2v4a2 2 0 0 1-2 2C10.5 22 2 13.5 2 5a2 2 0 0 1 2-2Z"/>
  </symbol>

  <symbol id="icon-mail" viewBox="0 0 24 24" fill="none" stroke="currentColor" stroke-width="2" stroke-linecap="round" stroke-linejoin="round">
    <rect x="2" y="4" width="20" height="16" rx="2"/>
    <path d="m3 6 9 7 9-7"/>
  </symbol>

  <!-- ===== Bổ sung cho khu vực quản trị (vật tư, thao tác bảng) ===== -->

  <symbol id="icon-box" viewBox="0 0 24 24" fill="none" stroke="currentColor" stroke-width="2" stroke-linecap="round" stroke-linejoin="round">
    <path d="M21 8 12 3 3 8v8l9 5 9-5z"/>
    <path d="m3 8 9 5 9-5M12 13v8"/>
  </symbol>

  <symbol id="icon-bug" viewBox="0 0 24 24" fill="none" stroke="currentColor" stroke-width="2" stroke-linecap="round" stroke-linejoin="round">
    <rect x="8" y="8" width="8" height="12" rx="4"/>
    <path d="M9 7a3 3 0 0 1 6 0"/>
    <path d="M8 12H4M8 16H5M16 12h4M16 16h3M9.5 5 8 3M14.5 5 16 3"/>
  </symbol>

  <symbol id="icon-mushroom" viewBox="0 0 24 24" fill="none" stroke="currentColor" stroke-width="2" stroke-linecap="round" stroke-linejoin="round">
    <path d="M3 12a9 9 0 0 1 18 0z"/>
    <path d="M10 12v6a2 2 0 0 0 4 0v-6"/>
  </symbol>

  <symbol id="icon-grass" viewBox="0 0 24 24" fill="none" stroke="currentColor" stroke-width="2" stroke-linecap="round" stroke-linejoin="round">
    <path d="M12 21c0-5-2-9-5-11M12 21c0-5 2-9 5-11M12 21V9"/>
    <line x1="4" y1="21" x2="20" y2="21"/>
  </symbol>

  <symbol id="icon-seed" viewBox="0 0 24 24" fill="none" stroke="currentColor" stroke-width="2" stroke-linecap="round" stroke-linejoin="round">
    <ellipse cx="12" cy="12" rx="5" ry="8" transform="rotate(35 12 12)"/>
    <path d="M9 15c1.5-2 3.5-4 6-5"/>
  </symbol>

  <symbol id="icon-flask" viewBox="0 0 24 24" fill="none" stroke="currentColor" stroke-width="2" stroke-linecap="round" stroke-linejoin="round">
    <path d="M10 3v6L4.5 18a2 2 0 0 0 1.7 3h11.6a2 2 0 0 0 1.7-3L14 9V3"/>
    <path d="M9 3h6M7.5 15h9"/>
  </symbol>

  <symbol id="icon-factory" viewBox="0 0 24 24" fill="none" stroke="currentColor" stroke-width="2" stroke-linecap="round" stroke-linejoin="round">
    <path d="M3 21V10l6 4V10l6 4V7h6v14z"/>
    <path d="M3 21h18"/>
  </symbol>

  <symbol id="icon-pencil" viewBox="0 0 24 24" fill="none" stroke="currentColor" stroke-width="2" stroke-linecap="round" stroke-linejoin="round">
    <path d="M4 20h4L20 8a2.8 2.8 0 0 0-4-4L4 16z"/>
    <path d="m14 6 4 4"/>
  </symbol>

  <symbol id="icon-trash" viewBox="0 0 24 24" fill="none" stroke="currentColor" stroke-width="2" stroke-linecap="round" stroke-linejoin="round">
    <path d="M4 7h16M10 7V4h4v3M6 7l1 13h10l1-13"/>
    <path d="M10 11v6M14 11v6"/>
  </symbol>

  <symbol id="icon-plus" viewBox="0 0 24 24" fill="none" stroke="currentColor" stroke-width="2" stroke-linecap="round" stroke-linejoin="round">
    <path d="M12 5v14M5 12h14"/>
  </symbol>
  <symbol id="icon-eye" viewBox="0 0 24 24" fill="none" stroke="currentColor" stroke-width="2" stroke-linecap="round" stroke-linejoin="round">
    <path d="M2 12s3.5-7 10-7 10 7 10 7-3.5 7-10 7-10-7-10-7Z"/>
    <circle cx="12" cy="12" r="3"/>
  </symbol>

  <symbol id="icon-eye-off" viewBox="0 0 24 24" fill="none" stroke="currentColor" stroke-width="2" stroke-linecap="round" stroke-linejoin="round">
    <path d="M4.5 7C3 8.5 2 12 2 12s3.5 7 10 7c2 0 3.7-.7 5.1-1.6M20.6 15.4C21.6 14 22 12 22 12s-3.5-7-10-7c-.9 0-1.7.1-2.5.3"/>
    <path d="M9.9 9.9a3 3 0 0 0 4.2 4.2"/>
    <line x1="3" y1="3" x2="21" y2="21"/>
  </symbol>

  <symbol id="icon-check-circle" viewBox="0 0 24 24" fill="none" stroke="currentColor" stroke-width="2" stroke-linecap="round" stroke-linejoin="round">
    <circle cx="12" cy="12" r="9"/>
    <path d="m8.5 12 2.5 2.5 4.5-5"/>
  </symbol>

  <symbol id="icon-paperclip" viewBox="0 0 24 24" fill="none" stroke="currentColor" stroke-width="2" stroke-linecap="round" stroke-linejoin="round">
    <path d="M21.44 11.05 12.25 20.24a6 6 0 0 1-8.49-8.49l8.57-8.57a4 4 0 1 1 5.66 5.66L9.4 17.42a2 2 0 0 1-2.83-2.83l8.49-8.48"/>
  </symbol>

  <symbol id="icon-calendar" viewBox="0 0 24 24" fill="none" stroke="currentColor" stroke-width="2" stroke-linecap="round" stroke-linejoin="round">
    <rect x="3" y="4" width="18" height="18" rx="2"/>
    <path d="M16 2v4M8 2v4M3 10h18"/>
  </symbol>

  <symbol id="icon-file-text" viewBox="0 0 24 24" fill="none" stroke="currentColor" stroke-width="2" stroke-linecap="round" stroke-linejoin="round">
    <path d="M14 3H7a2 2 0 0 0-2 2v14a2 2 0 0 0 2 2h10a2 2 0 0 0 2-2V8z"/>
    <path d="M14 3v5h5M8 13h8M8 17h8"/>
  </symbol>

  <symbol id="icon-scissors" viewBox="0 0 24 24" fill="none" stroke="currentColor" stroke-width="2" stroke-linecap="round" stroke-linejoin="round">
    <circle cx="6" cy="6" r="3"/>
    <circle cx="6" cy="18" r="3"/>
    <line x1="20" y1="4" x2="8.12" y2="15.88"/>
    <line x1="14.47" y1="14.48" x2="20" y2="20"/>
    <line x1="8.12" y1="8.12" x2="12" y2="12"/>
  </symbol>

</svg>
